<svg width="26" height="26" viewBox="0 0 26 26" fill="none" xmlns="http://www.w3.org/2000/svg">
<path d="M15.2966 15.2966C14.9991 15.6159 14.6403 15.872 14.2416 16.0497C13.843 16.2273 13.4126 16.3228 12.9762 16.3305C12.5399 16.3382 12.1064 16.2579 11.7017 16.0945C11.297 15.931 10.9294 15.6877 10.6208 15.3791C10.3122 15.0705 10.0689 14.7029 9.90545 14.2982C9.74199 13.8935 9.66172 13.4601 9.66942 13.0237C9.67711 12.5873 9.77263 12.1569 9.95026 11.7583C10.1279 11.3596 10.384 11.0008 10.7033 10.7033M19.435 19.4349C17.5831 20.8465 15.3282 21.6285 13 21.6666C5.41665 21.6666 1.08331 12.9999 1.08331 12.9999C2.43086 10.4887 4.29988 8.2946 6.56498 6.56495L19.435 19.4349ZM10.725 4.59328C11.4707 4.41873 12.2341 4.33148 13 4.33328C20.5833 4.33328 24.9166 12.9999 24.9166 12.9999C24.259 14.2302 23.4748 15.3884 22.5766 16.4558L10.725 4.59328Z" stroke="black" stroke-width="2" stroke-linecap="round" stroke-linejoin="round"/>
<path d="M1.08331 1.08325L24.9166 24.9166" stroke="black" stroke-width="2" stroke-linecap="round" stroke-linejoin="round"/>
</svg>
